<svg xmlns="http://www.w3.org/2000/svg" xmlns:xlink="http://www.w3.org/1999/xlink" width="78" zoomAndPan="magnify" viewBox="0 0 58.5 58.499999" height="78" preserveAspectRatio="xMidYMid meet" version="1.0"><defs><g/></defs><g fill="#00aeff" fill-opacity="1"><g transform="translate(7.522734, 50.368499)"><g><path d="M 40.28125 -19.546875 C 40.28125 -13.085938 38.679688 -8.125 35.484375 -4.65625 C 32.285156 -1.195312 27.695312 0.53125 21.71875 0.53125 C 15.75 0.53125 11.164062 -1.195312 7.96875 -4.65625 C 4.769531 -8.125 3.171875 -13.101562 3.171875 -19.59375 C 3.171875 -26.082031 4.773438 -31.035156 7.984375 -34.453125 C 11.191406 -37.867188 15.789062 -39.578125 21.78125 -39.578125 C 27.769531 -39.578125 32.347656 -37.851562 35.515625 -34.40625 C 38.691406 -30.96875 40.28125 -26.015625 40.28125 -19.546875 Z M 11.828125 -19.546875 C 11.828125 -15.191406 12.65625 -11.910156 14.3125 -9.703125 C 15.96875 -7.492188 18.4375 -6.390625 21.71875 -6.390625 C 28.3125 -6.390625 31.609375 -10.773438 31.609375 -19.546875 C 31.609375 -28.316406 28.332031 -32.703125 21.78125 -32.703125 C 18.488281 -32.703125 16.003906 -31.597656 14.328125 -29.390625 C 12.660156 -27.179688 11.828125 -23.898438 11.828125 -19.546875 Z M 11.828125 -19.546875 "/></g></g></g></svg>